<?xml version="1.0" standalone="no"?><!DOCTYPE svg PUBLIC "-//W3C//DTD SVG 1.1//EN" "http://www.w3.org/Graphics/SVG/1.1/DTD/svg11.dtd"><svg t="1552615919207" class="icon" style="" viewBox="0 0 1025 1024" version="1.1" xmlns="http://www.w3.org/2000/svg" p-id="11289" xmlns:xlink="http://www.w3.org/1999/xlink" width="200.1953125" height="200"><defs><style type="text/css"></style></defs><path d="M208.1 304.8c37.3 0 69.4 8 96.6 21.6v-29.5c0-15.6-12.7-28.3-28.3-28.3H130.3c-15.6 0-28.3 12.7-28.3 28.3v34.4c29.1-16.6 64.4-26.5 106.1-26.5zM820.9 304.8c-37.3 0-69.4 8-96.6 21.6v-29.5c0-15.6 12.7-28.3 28.3-28.3h146.2c15.6 0 28.3 12.7 28.3 28.3v34.4c-29.2-16.6-64.5-26.5-106.2-26.5z" fill="#54A8B9" p-id="11290"></path><path d="M844.5 454.4c14.8-14.8 14.8-38.8 0-53.5-14.8-14.8-38.8-14.8-53.5 0-14.8 14.8-14.8 38.8 0 53.5 14.7 14.8 38.7 14.8 53.5 0z" fill="#F79633" p-id="11291"></path><path d="M943.5 499.9c-14.8-14.8-38.7-14.8-53.5 0-14.8 14.8-14.8 38.8 0 53.5 14.8 14.8 38.8 14.8 53.5 0 14.8-14.7 14.8-38.7 0-53.5zM696.6 495.2c-14.8 14.8-14.8 38.8 0 53.5 14.8 14.8 38.8 14.8 53.5 0 14.8-14.8 14.8-38.8 0-53.5-14.8-14.7-38.8-14.7-53.5 0z" fill="#1afa29" p-id="11292" data-spm-anchor-id="a313x.7781069.0.i15" class=""></path><path d="M795.6 594.3c-14.8 14.8-14.8 38.8 0 53.5 14.8 14.8 38.8 14.8 53.6 0 14.8-14.8 14.8-38.8 0-53.5-14.9-14.8-38.8-14.8-53.6 0z" fill="#54A8B9" p-id="11293"></path><path d="M174.1 379.6c-3.9 0-7.1 3.2-7.1 7.1v41.9c0 3.9 2.5 9.1 5.5 11.5l28.5 22.8c3 2.4 8 2.4 11 0l28.6-22.8c3-2.4 5.5-7.6 5.5-11.5v-41.9c0-3.9-3.2-7.1-7.1-7.1h-64.9zM62 556.6c0 3.9 3.2 7.1 7.1 7.1H111c3.9 0 9.1-2.5 11.5-5.5l22.8-28.5c2.5-3 2.5-8 0-11l-22.8-28.6c-2.4-3-7.6-5.5-11.5-5.5H69c-3.9 0-7.1 3.2-7.1 7.1v64.9zM239.1 668.8c3.9 0 7.1-3.2 7.1-7.1v-41.9c0-3.9-2.5-9.1-5.5-11.5l-28.5-22.8c-3-2.4-8-2.4-11 0l-28.5 22.8c-3 2.4-5.5 7.6-5.5 11.5l-0.1 41.9c0 3.9 3.2 7.1 7.1 7.1h64.9zM351.2 491.7c0-3.9-3.2-7.1-7.1-7.1h-41.9c-3.9 0-9 2.5-11.5 5.5l-22.8 28.5c-2.4 3-2.4 8 0 11l22.8 28.5c2.4 3 7.6 5.5 11.5 5.5l41.9 0.1c3.9 0 7.1-3.2 7.1-7.1v-64.9z" fill="#d81e06" p-id="11294" data-spm-anchor-id="a313x.7781069.0.i14" class=""></path><path d="M776.1 16.3c-92 0-162.8 26.5-210.5 78.7-63.4 69.4-65.5 161.7-64.5 189.2h28.3c-0.7-21.7 0.2-108 57.3-170.3 42.1-46 105.9-69.3 189.4-69.3 7.8 0 14.1-6.3 14.1-14.1s-6.3-14.2-14.1-14.2z" fill="#626264" p-id="11295"></path><path d="M814.1 314.3c-44.9 0-86.4 14.1-120.6 37.9h-21.9c-5.2-18.1-21.7-31.4-41.5-31.4H587v-1.6c0-15.6-12.7-28.3-28.3-28.3h-87.2c-15.6 0-28.3 12.7-28.3 28.3v1.6h-46.9c-19.8 0-36.2 13.3-41.5 31.4h-21.9c-34.2-23.9-75.7-37.9-120.6-37.9-116.6 0-211.1 94.5-211.1 211.1v424.2c0 47 40 79.2 93.6 19.9 50.6-55.9 192.9-195.9 257.9-268.2 1-0.9 2-1.9 3.1-2.8 14.8 15 35.3 24.4 58 24.4 37.7 0 69.2-25.8 78.4-60.6h42c9.3 34.8 40.7 60.6 78.4 60.6 22.7 0 43.2-9.3 58-24.4 1 1 2.1 1.9 3.1 2.8 65 72.3 207.3 212.3 257.9 268.2 53.6 59.3 93.6 27.1 93.6-19.9V525.4c0-116.6-94.5-211.1-211.1-211.1zM206.6 704c-99.3 0-179.8-80.5-179.8-179.8s80.5-179.8 179.8-179.8c99.3 0 179.8 80.5 179.8 179.8S305.9 704 206.6 704z m270.1-83.3c0 3.7-2.8 5.6-6.3 4.2l-43.1-18c-3.5-1.5-3.5-3.8 0-5.3l43.1-18c3.4-1.4 6.3 0.4 6.3 4.2v32.9zM599 606.9l-43 18c-3.5 1.4-6.3-0.4-6.3-4.2v-32.8c0-3.7 2.8-5.6 6.3-4.2l43 18c3.5 1.4 3.5 3.7 0 5.2zM819.9 704c-99.3 0-179.8-80.5-179.8-179.8s80.5-179.8 179.8-179.8c99.3 0 179.8 80.5 179.8 179.8S919.2 704 819.9 704z" fill="#1296db" p-id="11296" data-spm-anchor-id="a313x.7781069.0.i13" class="selected"></path></svg>